<svg version="1.1" id="Layer_1" xmlns="http://www.w3.org/2000/svg" xmlns:xlink="http://www.w3.org/1999/xlink" x="0px" y="0px"
	 width="100%" viewBox="0 0 1000 800" enable-background="new 0 0 1000 800" xml:space="preserve">
<path fill="#F4F4F4" opacity="1.000000" stroke="none" 
	d="
M529.000000,801.000000 
	C352.666656,801.000000 176.833328,801.000000 1.000000,801.000000 
	C1.000000,534.333313 1.000000,267.666656 1.000000,1.000000 
	C334.333344,1.000000 667.666687,1.000000 1001.000000,1.000000 
	C1001.000000,267.666656 1001.000000,534.333313 1001.000000,801.000000 
	C843.833313,801.000000 686.666687,801.000000 529.000000,801.000000 
M394.436066,506.559357 
	C394.436066,506.559357 394.411682,506.478455 394.257141,506.163940 
	C394.257141,506.163940 393.940063,506.014679 393.643738,505.424042 
	C382.007050,494.561096 372.636566,481.988953 364.736389,468.178406 
	C358.061493,456.509796 343.862122,451.912445 331.419708,456.779633 
	C319.094086,461.601074 311.967072,474.380157 314.970398,487.297913 
	C317.749695,499.251984 325.622986,508.497681 332.838501,518.829956 
	C347.307343,538.058044 364.399750,554.443970 385.386047,567.476929 
	C386.256836,567.946472 387.127594,568.416016 388.153107,569.114990 
	C388.153107,569.114990 388.429657,569.104675 388.808624,569.624512 
	C389.195435,569.790039 389.582275,569.955566 389.958405,570.042542 
	C389.958405,570.042542 389.886932,570.076965 390.256989,570.559998 
	C390.820953,570.763611 391.384949,570.967224 391.939514,571.084229 
	C391.939514,571.084229 391.859772,571.119507 392.314087,571.628357 
	C460.762238,608.236511 528.458008,607.614990 595.267639,567.499878 
	C595.267639,567.499878 595.345032,567.502991 596.006226,567.362732 
	C596.532959,566.956787 597.059692,566.550842 598.040466,566.088867 
	C598.394592,565.823059 598.748718,565.557251 599.723999,565.123291 
	C600.546753,564.468262 601.369568,563.813171 602.066711,563.105225 
	C602.066711,563.105225 602.149902,563.213196 602.745728,563.025879 
	C603.537292,562.364380 604.328796,561.702881 605.560242,560.956604 
	C605.854553,560.818115 606.031128,560.588928 606.629578,560.078125 
	C606.856934,559.787781 607.084351,559.497437 607.146851,559.219421 
	C607.146851,559.219421 607.218567,559.368408 607.788391,559.210266 
	C608.213074,558.819885 608.637817,558.429504 609.008789,558.000427 
	C609.008789,558.000427 609.025208,558.064636 609.578552,557.915955 
	C609.837891,557.645752 610.097168,557.375549 610.752808,557.015442 
	C610.752808,557.015442 611.008667,556.699707 611.517090,556.518616 
	C612.036987,556.027466 612.556885,555.536255 613.018005,555.004578 
	C613.018005,555.004578 613.026062,555.075439 613.583374,554.942688 
	C613.834412,554.660522 614.085388,554.378357 614.962402,553.906311 
	C630.680908,541.502686 643.723450,526.675476 655.005981,509.647003 
	C655.005981,509.647003 655.072144,509.200684 655.585815,508.826202 
	C655.848511,508.251343 656.111145,507.676483 656.891479,506.701385 
	C663.038513,494.287354 669.185608,481.873322 675.373413,469.309113 
	C675.373413,469.309113 675.255981,469.207001 675.766296,468.752319 
	C676.269165,467.020416 676.771973,465.288483 677.729980,462.944214 
	C683.604431,445.460358 686.641113,427.477570 687.686462,408.382050 
	C687.355286,399.273529 687.024048,390.165039 686.707886,380.255066 
	C685.820190,375.420380 685.124817,370.540619 684.003906,365.760651 
	C681.827271,356.478271 679.411621,347.251953 677.060181,337.256897 
	C669.803894,315.354553 658.797180,295.528320 643.685120,277.192078 
	C642.455383,275.583862 641.292175,273.919281 639.985596,272.376099 
	C626.883423,256.901764 611.612122,243.987885 593.873352,233.274658 
	C593.598450,233.091034 593.295776,233.002197 592.628906,232.515778 
	C591.754089,232.060455 590.879211,231.605118 589.589661,230.778244 
	C588.928040,230.462814 588.266357,230.147369 587.218811,229.317902 
	C586.480347,228.914383 585.741882,228.510880 584.424927,227.783310 
	C580.449097,225.774597 576.641113,223.273911 572.466003,221.849136 
	C559.788086,217.522751 547.029419,213.406586 534.189087,209.589035 
	C515.708801,204.094666 496.755554,203.267807 477.621338,204.468140 
	C460.628387,205.534149 443.946838,208.561508 427.974182,214.219299 
	C416.649323,218.230743 405.963440,224.046188 394.321533,229.230453 
	C374.864349,240.260132 357.414886,253.761200 342.423187,271.343323 
	C339.061798,275.466980 335.284302,279.323242 332.426697,283.770599 
	C326.701782,292.680389 321.480011,301.913452 315.532227,311.600800 
	C315.267670,312.880249 314.977295,314.154999 314.742523,315.439880 
	C312.539948,327.493256 319.407837,340.404083 330.314117,344.730164 
	C343.311157,349.885590 357.311707,346.044647 364.049194,334.794800 
	C367.117798,329.671021 369.653595,324.222076 373.332123,319.286407 
	C373.332123,319.286407 373.470123,319.232086 374.023926,318.879486 
	C375.500336,316.790161 376.976746,314.700836 378.442871,312.531158 
	C378.442871,312.531158 378.499695,312.473480 378.994904,312.271027 
	C379.294006,311.836426 379.593140,311.401825 380.427795,310.566498 
	C390.659882,301.184937 400.891968,291.803345 411.789520,282.152588 
	C436.206940,266.158112 463.080078,258.017914 492.199280,258.240723 
	C519.360413,258.448517 544.462219,266.400818 567.606018,280.630920 
	C567.606018,280.630920 567.638123,280.654297 567.815491,280.910461 
	C567.815491,280.910461 568.122131,280.965424 568.544373,281.443481 
	C570.009277,282.343781 571.474121,283.244110 573.253967,284.683380 
	C574.123535,285.246460 574.993042,285.809540 576.078308,286.763611 
	C576.304810,286.976990 576.573242,287.094391 576.994080,286.997437 
	C576.994080,286.997437 576.883484,287.116547 577.250854,287.676086 
	C593.586121,299.981445 606.173401,315.517334 616.618408,333.905396 
	C616.888306,335.712402 617.283020,337.510864 617.407532,339.327820 
	C618.127197,349.836761 608.611389,361.462097 598.808716,360.580841 
	C591.977173,359.966675 585.638123,356.729218 581.999023,349.858215 
	C579.782104,345.672333 576.842590,341.869171 574.029724,337.236420 
	C532.510986,283.220856 452.350220,282.335052 409.252075,334.266144 
	C397.807556,348.253204 390.421143,364.106781 387.045502,382.760681 
	C386.710175,392.174652 386.374847,401.588654 385.967865,411.842529 
	C388.075378,429.342621 393.433044,445.637726 404.031311,460.716522 
	C407.859955,465.497040 411.185425,470.811920 415.600464,474.969788 
	C440.734344,498.639771 470.373535,509.832092 504.981201,504.917206 
	C536.286133,500.471283 560.930054,484.922424 578.338928,458.142792 
	C578.338928,458.142792 578.278076,458.263245 578.816650,457.927734 
	C579.305054,456.995453 579.793457,456.063171 580.782898,454.699615 
	C581.655273,453.286835 582.443298,451.813019 583.414062,450.471466 
	C588.638977,443.251282 597.824707,440.591156 605.914551,443.917938 
	C611.898499,446.378754 615.263733,451.113708 617.187012,457.502289 
	C617.187012,457.502289 617.388062,457.926758 617.337097,458.623413 
	C617.440308,459.074066 617.543457,459.524719 617.409851,460.828857 
	C616.224426,464.891968 616.019104,469.667755 613.676453,472.889313 
	C605.491211,484.145386 596.567688,494.864624 587.395630,505.981171 
	C587.170105,506.263702 586.944580,506.546265 586.673706,506.784027 
	C586.673706,506.784027 586.613342,506.763519 586.021912,507.046326 
	C550.487061,537.679688 509.679230,549.410339 463.383698,540.953918 
	C439.324921,536.559387 418.194519,525.747253 398.803375,510.100616 
	C397.531342,509.087097 396.259308,508.073547 394.834320,506.740967 
	C394.834320,506.740967 394.516144,506.586243 394.436066,506.559357 
z"/>
<path fill="#8B3D74" opacity="1.000000" stroke="none" 
	d="
M617.646606,459.975342 
	C617.543457,459.524719 617.440308,459.074066 617.458740,458.168427 
	C617.671204,457.405762 617.560120,457.180115 617.247192,457.036499 
	C615.263733,451.113708 611.898499,446.378754 605.914551,443.917938 
	C597.824707,440.591156 588.638977,443.251282 583.414062,450.471466 
	C582.443298,451.813019 581.655273,453.286835 580.220215,454.803467 
	C579.197754,456.025940 578.737915,457.144592 578.278076,458.263245 
	C578.278076,458.263245 578.338928,458.142792 577.953613,458.152893 
	C575.452942,459.537079 573.337463,460.911163 571.222046,462.285278 
	C571.265930,461.833710 571.309814,461.382141 571.353699,460.930603 
	C569.252930,460.555511 567.164856,460.031921 565.047485,459.850769 
	C563.240906,459.696198 561.400635,459.990845 559.575195,459.991913 
	C507.664825,460.021759 455.754425,460.039581 403.844055,460.059357 
	C393.433044,445.637726 388.075378,429.342621 386.378662,411.429382 
	C388.282837,412.078644 389.776215,413.141083 391.471466,414.347137 
	C393.466156,414.247406 395.939972,414.016052 398.413818,414.015564 
	C490.269226,413.997101 582.124634,413.990387 673.980042,414.025726 
	C679.078369,414.027679 684.312012,414.764526 687.204102,409.059845 
	C686.641113,427.477570 683.604431,445.460358 677.410889,462.862457 
	C676.491699,461.621979 675.891602,460.463287 675.291504,459.304565 
	C674.924316,459.436615 674.557068,459.568665 674.189819,459.700714 
	C674.545166,462.869476 674.900574,466.038239 675.255981,469.207001 
	C675.255981,469.207001 675.373413,469.309113 675.083862,469.150085 
	C671.272705,468.103943 667.755920,467.196320 664.223145,466.355774 
	C663.783325,466.251160 663.258850,466.577759 662.773499,466.578217 
	C648.746033,466.591736 634.718567,466.589142 620.822693,466.589142 
	C620.947815,464.578033 621.127502,461.689758 621.340637,458.263214 
	C619.415222,459.155609 618.530945,459.565491 617.646606,459.975342 
z"/>
<path fill="#9F3873" opacity="1.000000" stroke="none" 
	d="
M387.326935,381.934570 
	C390.421143,364.106781 397.807556,348.253204 409.920654,334.115173 
	C414.572601,333.309906 418.554230,332.098724 422.539581,332.086609 
	C466.962860,331.951294 511.386719,331.995880 555.810425,332.022461 
	C557.445923,332.023438 559.078003,332.396271 560.717712,332.486572 
	C562.220459,332.569336 563.731323,332.504150 566.069641,332.504150 
	C566.393799,332.928711 567.316772,334.546265 568.624573,335.743469 
	C570.138367,337.129333 571.263306,340.100006 574.227600,337.894104 
	C576.842590,341.869171 579.782104,345.672333 581.999023,349.858215 
	C585.638123,356.729218 591.977173,359.966675 598.808716,360.580841 
	C608.611389,361.462097 618.127197,349.836761 617.407532,339.327820 
	C617.283020,337.510864 616.888306,335.712402 616.795166,333.551147 
	C618.942078,334.382111 620.912231,335.567352 623.064514,336.862152 
	C623.722839,335.644440 624.356262,334.472900 624.989624,333.301361 
	C625.371094,333.386688 625.752563,333.471985 626.133972,333.557281 
	C626.036804,334.854767 625.939575,336.152222 625.872681,337.045319 
	C637.921509,337.045319 649.985413,336.954132 662.046814,337.089020 
	C667.065613,337.145111 672.079041,337.683380 677.094971,338.002411 
	C679.411621,347.251953 681.827271,356.478271 684.003906,365.760651 
	C685.124817,370.540619 685.820190,375.420380 686.413086,380.807648 
	C684.575317,379.894989 683.032471,378.429749 682.381897,377.811920 
	C679.548218,378.601135 677.037598,379.909271 674.525452,379.912079 
	C581.646362,380.016449 488.767120,379.982788 395.888031,380.081268 
	C393.033691,380.084290 390.180603,381.289703 387.326935,381.934570 
z"/>
<path fill="#6F4476" opacity="1.000000" stroke="none" 
	d="
M388.429657,569.104675 
	C388.429657,569.104675 388.153107,569.114990 388.011169,568.670227 
	C386.921204,567.817810 385.973206,567.410095 385.025177,567.002441 
	C364.399750,554.443970 347.307343,538.058044 332.977112,518.361633 
	C333.487976,516.949829 333.860260,516.006348 333.730011,516.336487 
	C337.895905,516.589172 341.288635,516.893311 344.687134,516.984802 
	C364.254761,517.511658 383.872192,515.933350 403.434662,517.930969 
	C403.265137,515.094116 396.077148,515.619080 399.175934,510.582520 
	C418.194519,525.747253 439.324921,536.559387 463.383698,540.953918 
	C509.679230,549.410339 550.487061,537.679688 586.397522,507.279358 
	C585.518005,511.106964 584.262939,514.701599 582.768005,518.983032 
	C586.214172,519.405029 588.641846,519.947205 591.072266,519.959900 
	C606.228577,520.039124 621.387085,520.113281 636.540588,519.893433 
	C639.206787,519.854797 641.852783,518.420776 645.043701,517.471863 
	C644.864014,517.254822 645.438171,517.948364 646.074341,518.716797 
	C648.657410,515.213989 649.072571,509.977539 654.726013,510.000793 
	C643.723450,526.675476 630.680908,541.502686 614.372070,554.075439 
	C613.529785,554.521484 613.277893,554.798462 613.026062,555.075439 
	C613.026062,555.075439 613.018005,555.004578 612.745728,555.043701 
	C611.985168,555.621826 611.496887,556.160767 611.008667,556.699707 
	C611.008667,556.699707 610.752808,557.015442 610.274963,557.129517 
	C609.539856,557.517273 609.282532,557.790955 609.025208,558.064636 
	C609.025208,558.064636 609.008789,558.000427 608.714844,558.043640 
	C608.020081,558.514038 607.619324,558.941223 607.218567,559.368408 
	C607.218567,559.368408 607.146851,559.219421 606.940491,559.275635 
	C606.519348,559.644226 606.304626,559.956604 606.089905,560.269043 
	C606.031128,560.588928 605.854553,560.818115 604.966980,560.994385 
	C603.632446,561.759216 602.891174,562.486206 602.149902,563.213196 
	C602.149902,563.213196 602.066711,563.105225 601.743713,563.090759 
	C600.648071,563.814697 599.875488,564.553101 599.102905,565.291504 
	C598.748718,565.557251 598.394592,565.823059 597.428650,566.106873 
	C596.326233,566.584229 595.835632,567.043640 595.345032,567.502991 
	C595.345032,567.502991 595.267639,567.499878 594.881470,567.348633 
	C591.007507,567.642029 587.319458,567.517212 584.076172,568.657532 
	C578.429504,570.642944 573.270325,567.848328 567.826599,567.870239 
	C514.366455,568.085266 460.904968,567.999268 407.443878,568.001099 
	C402.042694,568.001282 396.479462,567.207153 391.859772,571.119507 
	C391.859772,571.119507 391.939514,571.084229 391.793488,570.847778 
	C391.060638,570.433228 390.473785,570.255066 389.886932,570.076904 
	C389.886932,570.076965 389.958405,570.042542 389.786194,569.811584 
	C389.219238,569.421936 388.824463,569.263306 388.429657,569.104675 
z"/>
<path fill="#963A74" opacity="1.000000" stroke="none" 
	d="
M387.186218,382.347626 
	C390.180603,381.289703 393.033691,380.084290 395.888031,380.081268 
	C488.767120,379.982788 581.646362,380.016449 674.525452,379.912079 
	C677.037598,379.909271 679.548218,378.601135 682.381897,377.811920 
	C683.032471,378.429749 684.575317,379.894989 686.405518,381.208374 
	C687.024048,390.165039 687.355286,399.273529 687.445312,408.720947 
	C684.312012,414.764526 679.078369,414.027679 673.980042,414.025726 
	C582.124634,413.990387 490.269226,413.997101 398.413818,414.015564 
	C395.939972,414.016052 393.466156,414.247406 391.471466,414.347137 
	C389.776215,413.141083 388.282837,412.078644 386.414490,411.009399 
	C386.374847,401.588654 386.710175,392.174652 387.186218,382.347626 
z"/>
<path fill="#BB3071" opacity="1.000000" stroke="none" 
	d="
M594.160339,233.658142 
	C611.612122,243.987885 626.883423,256.901764 639.985596,272.376099 
	C641.292175,273.919281 642.455383,275.583862 643.829590,277.819519 
	C642.708374,280.944000 641.179871,281.164032 638.809937,279.563507 
	C636.184448,277.790344 633.253784,275.251282 630.418030,275.201385 
	C609.463501,274.832581 588.499512,275.001770 567.570312,275.001770 
	C567.570312,277.410858 567.570312,279.031586 567.570312,280.652313 
	C544.462219,266.400818 519.360413,258.448517 492.199280,258.240723 
	C463.080078,258.017914 436.206940,266.158112 411.427368,281.890076 
	C411.466980,279.938385 411.868774,278.249207 412.232880,276.718384 
	C409.388367,272.412903 405.256958,271.594482 400.473358,271.942017 
	C396.495667,272.231018 392.480286,271.999573 388.481598,272.001587 
	C377.485260,272.007111 366.483795,271.828186 355.495728,272.132843 
	C352.155914,272.225433 348.466644,274.543457 348.534668,268.903931 
	C346.413330,269.684021 344.688385,270.318329 342.963409,270.952667 
	C357.414886,253.761200 374.864349,240.260132 394.653442,229.507263 
	C393.819183,231.539429 392.653015,233.294800 391.097443,235.636276 
	C394.225220,236.068298 397.597351,236.935516 400.970703,236.940292 
	C459.369568,237.023178 517.768555,236.988037 576.167542,237.034958 
	C579.124512,237.037338 582.077576,237.714630 585.038879,237.778992 
	C588.663452,237.857742 592.468018,238.000473 594.160339,233.658142 
M388.515442,235.424362 
	C388.515442,235.424362 388.571320,235.522552 388.515442,235.424362 
z"/>
<path fill="#7E4074" opacity="1.000000" stroke="none" 
	d="
M403.937683,460.387939 
	C455.754425,460.039581 507.664825,460.021759 559.575195,459.991913 
	C561.400635,459.990845 563.240906,459.696198 565.047485,459.850769 
	C567.164856,460.031921 569.252930,460.555511 571.353699,460.930603 
	C571.309814,461.382141 571.265930,461.833710 571.222046,462.285278 
	C573.337463,460.911163 575.452942,459.537079 577.941895,458.219360 
	C560.930054,484.922424 536.286133,500.471283 504.981201,504.917206 
	C470.373535,509.832092 440.734344,498.639771 415.600464,474.969788 
	C411.185425,470.811920 407.859955,465.497040 403.937683,460.387939 
z"/>
<path fill="#C32D70" opacity="1.000000" stroke="none" 
	d="
M594.016846,233.466400 
	C592.468018,238.000473 588.663452,237.857742 585.038879,237.778992 
	C582.077576,237.714630 579.124512,237.037338 576.167542,237.034958 
	C517.768555,236.988037 459.369568,237.023178 400.970703,236.940292 
	C397.597351,236.935516 394.225220,236.068298 391.097443,235.636276 
	C392.653015,233.294800 393.819183,231.539429 394.988831,229.420227 
	C405.963440,224.046188 416.649323,218.230743 427.974182,214.219299 
	C443.946838,208.561508 460.628387,205.534149 477.621338,204.468140 
	C496.755554,203.267807 515.708801,204.094666 534.189087,209.589035 
	C547.029419,213.406586 559.788086,217.522751 572.466003,221.849136 
	C576.641113,223.273911 580.449097,225.774597 584.796143,228.294495 
	C585.979858,229.147766 586.792297,229.489853 587.604736,229.831940 
	C588.266357,230.147369 588.928040,230.462814 589.862549,231.289978 
	C591.078796,232.203857 592.022034,232.605988 592.965332,233.008133 
	C593.295776,233.002197 593.598450,233.091034 594.016846,233.466400 
M583.735596,232.079712 
	C583.413452,232.891617 583.091309,233.703537 582.769104,234.515457 
	C584.061829,234.313980 585.354553,234.112488 586.647278,233.910995 
	C585.931458,233.285629 585.215698,232.660263 583.735596,232.079712 
M580.424866,231.484879 
	C580.424866,231.484879 580.521973,231.429932 580.424866,231.484879 
z"/>
<path fill="#664676" opacity="1.000000" stroke="none" 
	d="
M392.086914,571.373901 
	C396.479462,567.207153 402.042694,568.001282 407.443878,568.001099 
	C460.904968,567.999268 514.366455,568.085266 567.826599,567.870239 
	C573.270325,567.848328 578.429504,570.642944 584.076172,568.657532 
	C587.319458,567.517212 591.007507,567.642029 594.925781,567.361206 
	C528.458008,607.614990 460.762238,608.236511 392.086914,571.373901 
z"/>
<path fill="#AD3472" opacity="1.000000" stroke="none" 
	d="
M567.588135,280.641602 
	C567.570312,279.031586 567.570312,277.410858 567.570312,275.001770 
	C588.499512,275.001770 609.463501,274.832581 630.418030,275.201385 
	C633.253784,275.251282 636.184448,277.790344 638.809937,279.563507 
	C641.179871,281.164032 642.708374,280.944000 644.043335,278.092468 
	C658.797180,295.528320 669.803894,315.354553 677.077515,337.629639 
	C672.079041,337.683380 667.065613,337.145111 662.046814,337.089020 
	C649.985413,336.954132 637.921509,337.045319 625.872681,337.045319 
	C625.939575,336.152222 626.036804,334.854767 626.133972,333.557281 
	C625.752563,333.471985 625.371094,333.386688 624.989624,333.301361 
	C624.356262,334.472900 623.722839,335.644440 623.064514,336.862152 
	C620.912231,335.567352 618.942078,334.382111 616.683777,333.144257 
	C606.173401,315.517334 593.586121,299.981445 577.207397,287.329102 
	C577.070557,287.026672 576.977112,287.071228 576.883728,287.115784 
	C576.573242,287.094391 576.304810,286.976990 575.982605,286.214722 
	C574.904297,285.158722 573.921631,284.651581 572.939026,284.144440 
	C571.474121,283.244110 570.009277,282.343781 568.459717,281.069763 
	C568.129395,280.682129 567.883728,280.668213 567.638123,280.654297 
	C567.638123,280.654297 567.606018,280.630920 567.588135,280.641602 
z"/>
<path fill="#AA3471" opacity="1.000000" stroke="none" 
	d="
M574.128662,337.565247 
	C571.263306,340.100006 570.138367,337.129333 568.624573,335.743469 
	C567.316772,334.546265 566.393799,332.928711 566.069641,332.504150 
	C563.731323,332.504150 562.220459,332.569336 560.717712,332.486572 
	C559.078003,332.396271 557.445923,332.023438 555.810425,332.022461 
	C511.386719,331.995880 466.962860,331.951294 422.539581,332.086609 
	C418.554230,332.098724 414.572601,333.309906 410.203369,333.942810 
	C452.350220,282.335052 532.510986,283.220856 574.128662,337.565247 
z"/>
<path fill="#7E4074" opacity="1.000000" stroke="none" 
	d="
M398.989655,510.341553 
	C396.077148,515.619080 403.265137,515.094116 403.434662,517.930969 
	C383.872192,515.933350 364.254761,517.511658 344.687134,516.984802 
	C341.288635,516.893311 337.895905,516.589172 333.730011,516.336487 
	C333.860260,516.006348 333.487976,516.949829 332.831421,518.044922 
	C325.622986,508.497681 317.749695,499.251984 314.970398,487.297913 
	C311.967072,474.380157 319.094086,461.601074 331.419708,456.779633 
	C343.862122,451.912445 358.061493,456.509796 364.736389,468.178406 
	C372.636566,481.988953 382.007050,494.561096 393.651031,505.847504 
	C393.909454,506.340118 394.160553,506.409271 394.411682,506.478455 
	C394.411682,506.478455 394.436066,506.559357 394.374512,506.749908 
	C394.537750,506.980316 394.762512,507.020172 394.987274,507.060059 
	C396.259308,508.073547 397.531342,509.087097 398.989655,510.341553 
z"/>
<path fill="#7E4074" opacity="1.000000" stroke="none" 
	d="
M654.865967,509.823914 
	C649.072571,509.977539 648.657410,515.213989 646.074341,518.716797 
	C645.438171,517.948364 644.864014,517.254822 645.043701,517.471863 
	C641.852783,518.420776 639.206787,519.854797 636.540588,519.893433 
	C621.387085,520.113281 606.228577,520.039124 591.072266,519.959900 
	C588.641846,519.947205 586.214172,519.405029 582.768005,518.983032 
	C584.262939,514.701599 585.518005,511.106964 586.693237,507.137939 
	C586.613342,506.763519 586.673706,506.784027 586.976440,506.738647 
	C587.494385,506.391479 587.709534,506.089661 587.924744,505.787842 
	C596.567688,494.864624 605.491211,484.145386 613.676453,472.889313 
	C616.019104,469.667755 616.224426,464.891968 617.528259,460.402100 
	C618.530945,459.565491 619.415222,459.155609 621.340637,458.263214 
	C621.127502,461.689758 620.947815,464.578033 620.822693,466.589142 
	C634.718567,466.589142 648.746033,466.591736 662.773499,466.578217 
	C663.258850,466.577759 663.783325,466.251160 664.223145,466.355774 
	C667.755920,467.196320 671.272705,468.103943 675.063477,469.225189 
	C669.185608,481.873322 663.038513,494.287354 656.316650,507.028656 
	C655.518616,507.970856 655.295410,508.585785 655.072144,509.200684 
	C655.072144,509.200684 655.005981,509.647003 654.865967,509.823914 
z"/>
<path fill="#AD3472" opacity="1.000000" stroke="none" 
	d="
M342.693298,271.148010 
	C344.688385,270.318329 346.413330,269.684021 348.534668,268.903931 
	C348.466644,274.543457 352.155914,272.225433 355.495728,272.132843 
	C366.483795,271.828186 377.485260,272.007111 388.481598,272.001587 
	C392.480286,271.999573 396.495667,272.231018 400.473358,271.942017 
	C405.256958,271.594482 409.388367,272.412903 412.232880,276.718384 
	C411.868774,278.249207 411.466980,279.938385 411.094604,282.024658 
	C400.891968,291.803345 390.659882,301.184937 379.855042,310.820496 
	C379.021423,311.540833 378.760559,312.007172 378.499695,312.473480 
	C378.499695,312.473480 378.442871,312.531158 378.076752,312.394470 
	C372.789490,312.505341 367.870270,312.907104 362.946838,312.967407 
	C353.617859,313.081726 344.278320,312.765320 334.959076,313.087067 
	C329.260010,313.283844 322.952057,307.546417 319.109619,314.180481 
	C317.791016,312.815186 316.920776,311.914124 316.050537,311.013062 
	C321.480011,301.913452 326.701782,292.680389 332.426697,283.770599 
	C335.284302,279.323242 339.061798,275.466980 342.693298,271.148010 
z"/>
<path fill="#AA3471" opacity="1.000000" stroke="none" 
	d="
M315.791382,311.306946 
	C316.920776,311.914124 317.791016,312.815186 319.109619,314.180481 
	C322.952057,307.546417 329.260010,313.283844 334.959076,313.087067 
	C344.278320,312.765320 353.617859,313.081726 362.946838,312.967407 
	C367.870270,312.907104 372.789490,312.505341 378.081909,312.434631 
	C376.976746,314.700836 375.500336,316.790161 373.613617,318.899048 
	C373.028839,318.926910 372.854401,318.935211 372.679932,318.943542 
	C372.883759,319.105347 373.087585,319.267151 373.291412,319.428986 
	C369.653595,324.222076 367.117798,329.671021 364.049194,334.794800 
	C357.311707,346.044647 343.311157,349.885590 330.314117,344.730164 
	C319.407837,340.404083 312.539948,327.493256 314.742523,315.439880 
	C314.977295,314.154999 315.267670,312.880249 315.791382,311.306946 
M362.425537,321.484955 
	C362.425537,321.484955 362.521759,321.430603 362.425537,321.484955 
M370.574463,315.515167 
	C370.574463,315.515167 370.478363,315.569427 370.574463,315.515167 
z"/>
<path fill="#7E4074" opacity="1.000000" stroke="none" 
	d="
M675.511108,468.979675 
	C674.900574,466.038239 674.545166,462.869476 674.189819,459.700714 
	C674.557068,459.568665 674.924316,459.436615 675.291504,459.304565 
	C675.891602,460.463287 676.491699,461.621979 677.183289,463.168640 
	C676.771973,465.288483 676.269165,467.020416 675.511108,468.979675 
z"/>
<path fill="#BB3071" opacity="1.000000" stroke="none" 
	d="
M573.096497,284.413910 
	C573.921631,284.651581 574.904297,285.158722 575.874756,286.019257 
	C574.993042,285.809540 574.123535,285.246460 573.096497,284.413910 
z"/>
<path fill="#7E4074" opacity="1.000000" stroke="none" 
	d="
M578.547363,458.095459 
	C578.737915,457.144592 579.197754,456.025940 579.969727,455.019073 
	C579.793457,456.063171 579.305054,456.995453 578.547363,458.095459 
z"/>
<path fill="#664676" opacity="1.000000" stroke="none" 
	d="
M602.447815,563.119507 
	C602.891174,562.486206 603.632446,561.759216 604.747070,561.036804 
	C604.328796,561.702881 603.537292,562.364380 602.447815,563.119507 
z"/>
<path fill="#664676" opacity="1.000000" stroke="none" 
	d="
M599.413452,565.207397 
	C599.875488,564.553101 600.648071,563.814697 601.806519,563.117188 
	C601.369568,563.813171 600.546753,564.468262 599.413452,565.207397 
z"/>
<path fill="#664676" opacity="1.000000" stroke="none" 
	d="
M385.205627,567.239685 
	C385.973206,567.410095 386.921204,567.817810 387.933777,568.555542 
	C387.127594,568.416016 386.256836,567.946472 385.205627,567.239685 
z"/>
<path fill="#BB3071" opacity="1.000000" stroke="none" 
	d="
M592.797119,232.761963 
	C592.022034,232.605988 591.078796,232.203857 590.069946,231.475754 
	C590.879211,231.605118 591.754089,232.060455 592.797119,232.761963 
z"/>
<path fill="#664676" opacity="1.000000" stroke="none" 
	d="
M611.262878,556.609131 
	C611.496887,556.160767 611.985168,555.621826 612.775024,555.063965 
	C612.556885,555.536255 612.036987,556.027466 611.262878,556.609131 
z"/>
<path fill="#BB3071" opacity="1.000000" stroke="none" 
	d="
M587.411743,229.574921 
	C586.792297,229.489853 585.979858,229.147766 585.085449,228.456528 
	C585.741882,228.510880 586.480347,228.914383 587.411743,229.574921 
z"/>
<path fill="#664676" opacity="1.000000" stroke="none" 
	d="
M595.675659,567.432861 
	C595.835632,567.043640 596.326233,566.584229 597.201599,566.134888 
	C597.059692,566.550842 596.532959,566.956787 595.675659,567.432861 
z"/>
<path fill="#AA3471" opacity="1.000000" stroke="none" 
	d="
M378.747314,312.372253 
	C378.760559,312.007172 379.021423,311.540833 379.587280,311.020874 
	C379.593140,311.401825 379.294006,311.836426 378.747314,312.372253 
z"/>
<path fill="#664676" opacity="1.000000" stroke="none" 
	d="
M390.071960,570.318481 
	C390.473785,570.255066 391.060638,570.433228 391.798218,570.891113 
	C391.384949,570.967224 390.820953,570.763611 390.071960,570.318481 
z"/>
<path fill="#6F4476" opacity="1.000000" stroke="none" 
	d="
M655.328979,509.013428 
	C655.295410,508.585785 655.518616,507.970856 656.057800,507.228760 
	C656.111145,507.676483 655.848511,508.251343 655.328979,509.013428 
z"/>
<path fill="#664676" opacity="1.000000" stroke="none" 
	d="
M607.503479,559.289307 
	C607.619324,558.941223 608.020081,558.514038 608.741699,558.062988 
	C608.637817,558.429504 608.213074,558.819885 607.503479,559.289307 
z"/>
<path fill="#664676" opacity="1.000000" stroke="none" 
	d="
M388.619141,569.364624 
	C388.824463,569.263306 389.219238,569.421936 389.791565,569.850891 
	C389.582275,569.955566 389.195435,569.790039 388.619141,569.364624 
z"/>
<path fill="#664676" opacity="1.000000" stroke="none" 
	d="
M606.359741,560.173584 
	C606.304626,559.956604 606.519348,559.644226 607.022949,559.269531 
	C607.084351,559.497437 606.856934,559.787781 606.359741,560.173584 
z"/>
<path fill="#664676" opacity="1.000000" stroke="none" 
	d="
M609.301880,557.990295 
	C609.282532,557.790955 609.539856,557.517273 610.076782,557.174438 
	C610.097168,557.375549 609.837891,557.645752 609.301880,557.990295 
z"/>
<path fill="#6F4476" opacity="1.000000" stroke="none" 
	d="
M394.334412,506.321198 
	C394.160553,506.409271 393.909454,506.340118 393.799194,506.142822 
	C393.940063,506.014679 394.257141,506.163940 394.334412,506.321198 
z"/>
<path fill="#664676" opacity="1.000000" stroke="none" 
	d="
M613.304688,555.009033 
	C613.277893,554.798462 613.529785,554.521484 614.059082,554.170410 
	C614.085388,554.378357 613.834412,554.660522 613.304688,555.009033 
z"/>
<path fill="#6F4476" opacity="1.000000" stroke="none" 
	d="
M394.910797,506.900513 
	C394.762512,507.020172 394.537750,506.980316 394.414551,506.763367 
	C394.516144,506.586243 394.834320,506.740967 394.910797,506.900513 
z"/>
<path fill="#6F4476" opacity="1.000000" stroke="none" 
	d="
M587.660156,505.884521 
	C587.709534,506.089661 587.494385,506.391479 586.999146,506.761047 
	C586.944580,506.546265 587.170105,506.263702 587.660156,505.884521 
z"/>
<path fill="#7E4074" opacity="1.000000" stroke="none" 
	d="
M617.217102,457.269409 
	C617.560120,457.180115 617.671204,457.405762 617.484192,457.820099 
	C617.388062,457.926758 617.187012,457.502289 617.217102,457.269409 
z"/>
<path fill="#BB3071" opacity="1.000000" stroke="none" 
	d="
M567.726807,280.782379 
	C567.883728,280.668213 568.129395,280.682129 568.248535,280.830750 
	C568.122131,280.965424 567.815491,280.910461 567.726807,280.782379 
z"/>
<path fill="#C32D70" opacity="1.000000" stroke="none" 
	d="
M388.543396,235.473450 
	C388.571320,235.522552 388.515442,235.424362 388.543396,235.473450 
z"/>
<path fill="#BB3071" opacity="1.000000" stroke="none" 
	d="
M584.117737,232.057312 
	C585.215698,232.660263 585.931458,233.285629 586.647278,233.911011 
	C585.354553,234.112488 584.061829,234.313980 582.769104,234.515457 
	C583.091309,233.703537 583.413452,232.891617 584.117737,232.057312 
z"/>
<path fill="#BB3071" opacity="1.000000" stroke="none" 
	d="
M580.473389,231.457397 
	C580.521973,231.429932 580.424866,231.484879 580.473389,231.457397 
z"/>
<path fill="#BB3071" opacity="1.000000" stroke="none" 
	d="
M576.938904,287.056610 
	C576.977112,287.071228 577.070557,287.026672 577.023682,287.049316 
	C576.883484,287.116547 576.994080,286.997437 576.938904,287.056610 
z"/>
<path fill="#AD3472" opacity="1.000000" stroke="none" 
	d="
M362.473633,321.457764 
	C362.521759,321.430603 362.425537,321.484955 362.473633,321.457764 
z"/>
<path fill="#AD3472" opacity="1.000000" stroke="none" 
	d="
M373.311768,319.357697 
	C373.087585,319.267151 372.883759,319.105347 372.679932,318.943542 
	C372.854401,318.935211 373.028839,318.926910 373.336731,319.075317 
	C373.470123,319.232086 373.332123,319.286407 373.311768,319.357697 
z"/>
<path fill="#AD3472" opacity="1.000000" stroke="none" 
	d="
M370.526428,315.542297 
	C370.478363,315.569427 370.574463,315.515167 370.526428,315.542297 
z"/>
</svg>