<svg xmlns="http://www.w3.org/2000/svg" width="200" height="172.47" viewBox="0 0 200 172.47"><path d="M5598.929,3282.517a18.54,18.54,0,0,0-18.444,18.444v34.113h63.146v-52.557Zm57,0v172.47h46.81V3335.074h77.747V3300.96a18.54,18.54,0,0,0-18.443-18.444Zm-75.443,64.853v39.588h63.146V3347.37Zm134.549,0v39.588h65.451V3347.37Zm-134.549,51.884v37.289a18.54,18.54,0,0,0,18.444,18.444h44.7v-55.733Zm134.549,0v55.733h47.007a18.54,18.54,0,0,0,18.443-18.444v-37.289Z" transform="translate(-5580.485 -3282.517)"/></svg>